<svg xmlns="http://www.w3.org/2000/svg" width="38" height="38" viewBox="0 0 38 38"><g><g><path fill="#fff" d="M37.695 18.969a18.47 18.47 0 0 1-3.17 10.38 18.734 18.734 0 0 1-2.262 2.74 18.398 18.398 0 0 1-2.744 2.262 18.46 18.46 0 0 1-3.154 1.717c-1.118.47-2.295.834-3.487 1.076-1.222.256-2.48.381-3.736.381-1.258 0-2.514-.125-3.738-.38a18.6 18.6 0 0 1-3.485-1.077 18.44 18.44 0 0 1-3.152-1.717 18.432 18.432 0 0 1-2.75-2.261 19.23 19.23 0 0 1-2.262-2.74 18.681 18.681 0 0 1-2.793-6.647 18.764 18.764 0 0 1-.377-3.734c0-1.254.13-2.514.377-3.735.242-1.193.61-2.365 1.084-3.488a18.489 18.489 0 0 1 3.971-5.894 18.478 18.478 0 0 1 2.75-2.266c.99-.672 2.05-1.25 3.152-1.717 1.12-.47 2.295-.834 3.485-1.076a18.57 18.57 0 0 1 7.474 0c1.192.242 2.37.605 3.487 1.076a18.457 18.457 0 0 1 3.154 1.717c.982.66 1.902 1.424 2.744 2.266a18.412 18.412 0 0 1 2.262 2.74 18.496 18.496 0 0 1 3.17 10.377zM31.38 8.902c-.033.045-2.572 3.72-8.828 6.274a53.016 53.016 0 0 1 1.395 3.115c5.443-.684 10.804.47 11.037.518a15.796 15.796 0 0 0-3.604-9.907zm-12.238-5.78c-1.287 0-2.533.16-3.734.448.238.313 3.215 4.268 5.921 9.244 5.981-2.24 8.239-5.673 8.28-5.736a15.778 15.778 0 0 0-10.467-3.955zm-3.832.47l.035-.006v-.004a.15.15 0 0 1-.035.01zm-.014.002l.014-.002-.014.002zM3.632 15.703c.42.006 7.024.088 14.631-1.936-2.74-4.873-5.676-8.847-5.88-9.129a15.88 15.88 0 0 0-8.75 11.065zm3.723 13.855l-.004-.007s4.334-7.698 12.885-10.46c.21-.064.418-.13.627-.185a48.34 48.34 0 0 0-1.287-2.695c-8.157 2.44-15.989 2.262-16.27 2.258-.004.165-.012.33-.012.5 0 4.07 1.54 7.779 4.06 10.59zm17.97 4.004c-.232-1.386-1.152-6.24-3.384-12.031-.033.004-.067.018-.104.03-9.398 3.277-12.435 9.902-12.435 9.902s-.149-.108-.356-.277a15.801 15.801 0 0 0 10.096 3.632 15.81 15.81 0 0 0 6.184-1.256zm9.464-12.076c-.33-.107-4.762-1.51-9.877-.693 2.076 5.713 2.923 10.363 3.084 11.316a15.817 15.817 0 0 0 6.793-10.623z"/></g></g></svg>