<svg xmlns="http://www.w3.org/2000/svg" width="37" height="30" viewBox="0 0 37 30"><g><g><path fill="#fff" d="M36.845 3.572a15.117 15.117 0 0 1-4.355 1.193A7.603 7.603 0 0 0 35.826.566a15.204 15.204 0 0 1-4.817 1.846A7.57 7.57 0 0 0 25.47.014a7.586 7.586 0 0 0-7.388 9.316C11.776 9.015 6.188 5.994 2.445 1.4a7.595 7.595 0 0 0 2.348 10.133 7.566 7.566 0 0 1-3.438-.953v.1c0 3.671 2.616 6.74 6.088 7.437a7.707 7.707 0 0 1-2.002.264 7.3 7.3 0 0 1-1.424-.137 7.585 7.585 0 0 0 7.082 5.272 15.21 15.21 0 0 1-9.418 3.247c-.615 0-1.218-.037-1.812-.107a21.5 21.5 0 0 0 11.63 3.408c13.955 0 21.586-11.56 21.586-21.586 0-.326-.007-.656-.025-.982a15.383 15.383 0 0 0 3.785-3.924z"/></g></g></svg>